<svg xmlns="http://www.w3.org/2000/svg" xmlns:xlink="http://www.w3.org/1999/xlink" width="256px" height="256px" viewBox="-61.29 -61.29 389.07 389.07" xml:space="preserve" transform="rotate(270)">
    <g id="SVGRepo_bgCarrier" stroke-width="0" transform="translate(0,0), scale(1)">
        <rect x="-61.29" y="-61.29" width="389.07" height="389.07" rx="194.535" fill="none" stroke="white" stroke-width="8.794335"/>
    </g>
    <g id="SVGRepo_tracerCarrier" stroke-linecap="round" stroke-linejoin="round" stroke="#4d4c4c" stroke-width="8.794335">
        <path d="M150.036,266.494c-0.264,0-0.517-0.006-0.792-0.018c-6.102-0.337-11.332-4.474-13.046-10.347l-26.067-89.027 l-95.203-18.867c-6.014-1.194-10.614-6.059-11.476-12.123c-0.858-6.062,2.201-12.016,7.65-14.832L242.143,1.617 C247.5-1.175,254.057-0.29,258.518,3.8c4.474,4.101,5.885,10.55,3.562,16.146l-98.743,237.655 C161.097,263.018,155.836,266.494,150.036,266.494z"/>
    </g>
    <g id="SVGRepo_iconCarrier">
        <path d="M150.036,266.494c-0.264,0-0.517-0.006-0.792-0.018c-6.102-0.337-11.332-4.474-13.046-10.347l-26.067-89.027 l-95.203-18.867c-6.014-1.194-10.614-6.059-11.476-12.123c-0.858-6.062,2.201-12.016,7.65-14.832L242.143,1.617 C247.5-1.175,254.057-0.29,258.518,3.8c4.474,4.101,5.885,10.55,3.562,16.146l-98.743,237.655 C161.097,263.018,155.836,266.494,150.036,266.494z"/>
    </g>
</svg>
